<svg width="24" height="25" viewBox="0 0 24 25" fill="none" xmlns="http://www.w3.org/2000/svg">
<path d="M4.28098 14.4261C4.775 16.2697 5.89299 17.885 7.44448 18.9968C8.99596 20.1086 10.8849 20.648 12.7895 20.5231C14.6942 20.3982 16.4965 19.6168 17.8896 18.312C19.2827 17.0073 20.1802 15.2598 20.4293 13.3674C20.6784 11.4751 20.2636 9.55486 19.2557 7.93402C18.2477 6.31318 16.7089 5.09199 14.9015 4.47851C13.0941 3.86504 11.1298 3.89725 9.34352 4.56965C7.55718 5.24206 6.05926 6.51305 5.10498 8.16606L4.62798 9.04606M4.62798 9.04606C4.46961 8.96011 4.3374 8.83296 4.24534 8.67806C4.15328 8.52316 4.10478 8.34626 4.10498 8.16606V4.41606M4.62798 9.04606C4.77451 9.12515 4.93847 9.1664 5.10498 9.16606H8.85498" stroke="black" stroke-width="1.5" stroke-linecap="round" stroke-linejoin="round"/>
<path d="M12.25 8.04102V12.291L15.935 14.408" stroke="black" stroke-width="1.5" stroke-linecap="round" stroke-linejoin="round"/>
</svg>
